<svg xmlns="http://www.w3.org/2000/svg" enable-background="new 0 0 510 510" height="401" width="510"><rect id="backgroundrect" width="100%" height="100%" x="0" y="0" fill="none" stroke="none"/><g class="currentLayer" style=""><title>Layer 1</title><path d="m507.25498474121093,156.86998767089844 l-89.56,-127.445 c-5.974,-8.501 -18.583,-8.483 -24.544,0 l-34.085,48.504 c-38.589,-49.861 -97.132,-77.929 -158.614,-77.929 c-110.529,0 -200.452,89.923 -200.452,200.453 s89.923,200.453 200.453,200.453 c51.505,0 100.138,-19.632 136.849,-53.984 l-0.927,15.01 c-0.533,8.632 6.332,15.924 14.971,15.924 h108.155 c8.649000000000001,0 15.503,-7.302 14.971,-15.924 l-11.208,-181.439 h31.72 c12.139,0 19.238,-13.709 12.271,-23.623 zm-306.802,214.037 c-93.989,0 -170.454,-76.466 -170.454,-170.454 s76.465,-170.454 170.454,-170.454 c56.752,0 108.543,27.425 140.418,73.822 l-37.279,53.049 c-6.98,9.933 0.15500000000000003,23.624 12.272,23.624 h31.72 l-7.249,117.341 c-31.927,45.823 -83.917,73.072 -139.882,73.072 zm246.856,-220.413 c-8.649000000000001,0 -15.503,7.302 -14.971,15.924 l11.209,181.439 h-76.245 l11.209,-181.439 c0.533,-8.632 -6.332,-15.924 -14.971,-15.924 h-18.801 c8.566,-12.19 52.101,-74.141 60.686,-86.357 l60.686,86.357 z" id="svg_1" class=""/><path d="m219.38198474121094,185.45398767089844 h-37.864 c-10.479,0 -19.005,-8.525 -19.005,-19.004 c0,-10.515 8.512,-19.005 19.001,-19.005 c0.08600000000000002,0 0.17,0.0010000000000000002 0.255,0.0010000000000000002 h36.272 c8.922,0.08400000000000002 17.546,4.958 22.504,12.709 l0.19100000000000003,0.30000000000000004 c4.454,6.986 13.726,9.04 20.711,4.586 c6.985,-4.452 9.039,-13.725 4.587,-20.711 l-0.20500000000000002,-0.32100000000000006 c-10.458,-16.347 -27.519,-26.563 -50.38,-26.563 v-17.99 c0,-8.284 -6.716,-14.999 -14.999,-14.999 s-14.999,6.716 -14.999,14.999 v17.99 c-14.334,0 -26.745,2.6 -38.456,14.225 c-9.339,9.27 -14.481,21.621 -14.481,34.778 c0,27.021 21.984,49.003 49.004,49.003 h37.864 c10.479,0 19.004,8.525 19.004,19.004 c0,10.108 -8.007,19.004 -19.255,19.004 h-39.577 c-7.795,-0.07300000000000001 -15.271,-3.723 -20.517,-10.02 c-5.303,-6.366 -14.761,-7.225 -21.125,-1.924 c-6.364,5.303 -7.225,14.761 -1.923,21.125 c14.037,16.85 30.373,20.818 49.461,20.818 v17.99 c0,8.284 6.716,14.999 14.999,14.999 s14.999,-6.716 14.999,-14.999 v-17.99 c34.936,0 52.936,-24.611 52.936,-49.003 c0.0020000000000000005,-27.02 -21.981,-49.002 -49.002,-49.002 z" id="svg_2" class=""/></g></svg>