<svg xmlns="http://www.w3.org/2000/svg" enable-background="new 0 0 510 510" height="401" width="510" style=""><rect id="backgroundrect" width="100%" height="100%" x="0" y="0" fill="none" stroke="none"/><g class="currentLayer" style=""><title>Layer 1</title><path d="m219.38103051757813,185.4540029296875 h-37.864 c-10.479,0 -19.005,-8.525 -19.005,-19.004 c0,-10.515 8.512,-19.005 19.001,-19.005 c0.08500000000000002,0 0.17,0.0010000000000000002 0.255,0.0010000000000000002 h36.272 c8.922,0.08400000000000002 17.546,4.958 22.504,12.709 l0.19100000000000003,0.30000000000000004 c4.454,6.986 13.725,9.04 20.711,4.586 c6.985,-4.452 9.039,-13.725 4.587,-20.711 l-0.20500000000000002,-0.32100000000000006 c-10.458,-16.347 -27.519,-26.562 -50.38,-26.562 v-17.99 c0,-8.284 -6.716,-14.999 -14.999,-14.999 c-8.284,0 -14.999,6.716 -14.999,14.999 v17.99 c-35.038,0 -52.936,24.701 -52.936,49.003 c0,27.02 21.984,49.003 49.004,49.003 h37.864 c10.479,0 19.004,8.525 19.004,19.004 c0,10.514 -8.51,19.005 -19,19.005 c-0.08500000000000002,0 -0.17,-0.0010000000000000002 -0.255,-0.0010000000000000002 h-39.577 c-7.795,-0.07300000000000001 -15.271,-3.723 -20.517,-10.02 c-5.303,-6.365 -14.761,-7.225 -21.125,-1.924 c-6.364,5.303 -7.225,14.761 -1.923,21.125 c14.037,16.85 30.373,20.818 49.461,20.818 v17.99 c0,8.284 6.716,14.999 14.999,14.999 c8.284,0 14.999,-6.716 14.999,-14.999 v-17.99 c34.021,0 52.936,-23.632 52.936,-49.003 c0,-27.021 -21.982,-49.003 -49.003,-49.003 z" id="svg_1" class=""/><path d="m494.9810305175781,220.41300292968748 h-31.72 l11.209,-181.439 c0.533,-8.632 -6.332,-15.924 -14.971,-15.924 h-108.154 c-8.649000000000001,0 -15.503,7.302 -14.971,15.924 l0.927,15.01 c-36.711,-34.352 -85.344,-53.984 -136.849,-53.984 c-110.53,0.0010000000000000002 -200.452,89.923 -200.452,200.453 s89.922,200.452 200.452,200.452 c61.463,0 120.014,-28.054 158.613,-77.928 l34.085,48.504 c5.974,8.501 18.582,8.483 24.544,0 l89.559,-127.444 c6.98,-9.934 -0.15400000000000003,-23.624 -12.272,-23.624 zm-294.529,150.494 c-93.989,0 -170.454,-76.465 -170.454,-170.454 s76.466,-170.454 170.454,-170.454 c55.965,0 107.954,27.249 139.881,73.073 l7.249,117.34 h-31.72 c-12.14,0 -19.239,13.709 -12.272,23.624 l37.279,53.048 c-31.874,46.398 -83.665,73.823 -140.417,73.823 zm204.97,-34.138 c-8.585,-12.217 -52.12,-74.168 -60.686,-86.357 h18.801 c8.649000000000001,0 15.503,-7.302 14.971,-15.924 l-11.208,-181.439 h76.245 l-11.209,181.438 c-0.533,8.632 6.332,15.924 14.971,15.924 h18.801 z" id="svg_2" class=""/></g></svg>